<svg id="Layer_1" data-name="Layer 1" xmlns="http://www.w3.org/2000/svg" viewBox="0 0 170 170"><defs><style>.cls-1{fill:#40b4e5;}</style></defs><title>Price</title><path class="cls-1" d="M120.11,56.66c.15.59.28,1.19.41,1.79-.13-.6-.26-1.2-.41-1.79M98.79,111.27l-.06,0,.06,0m-.1,35.7A45.83,45.83,0,0,1,55.81,117a50,50,0,0,0,40.63-4.32v9.16h-14v4.58h14v8.94H101v-8.94h2.65a13.33,13.33,0,0,0,13.29-13.34v-.23a14.2,14.2,0,0,0-6.64-12,50.6,50.6,0,0,0,10.35-41.78c.12.61.23,1.21.33,1.82A46,46,0,0,1,98.69,147m10.1-44.32v0M101,109.73a50.76,50.76,0,0,0,6.18-5.38,9.61,9.61,0,0,1,5.19,8.53v.23a8.76,8.76,0,0,1-8.72,8.77H101ZM25.56,69a45.75,45.75,0,1,1,45.75,45.95A45.9,45.9,0,0,1,25.56,69M119.7,55.12c.07.23.12.47.19.71a50.34,50.34,0,1,0-69.57,59.05A50.34,50.34,0,1,0,119.7,55.12"/><path class="cls-1" d="M73.63,71.21h1.82A9.58,9.58,0,0,1,85,80.81V81a8.76,8.76,0,0,1-8.73,8.77H73.63Zm-13.55-14v-.23a8.66,8.66,0,0,1,8.63-8.67h.37V66.61a9.44,9.44,0,0,1-9-9.43m13.55,46.14V94.38h2.65A13.33,13.33,0,0,0,89.56,81v-.23A14.16,14.16,0,0,0,75.45,66.63H73.63V48.28H87.28V43.7H73.63V36H69.07V43.7H68.7A13.24,13.24,0,0,0,55.51,56.95v.23a14,14,0,0,0,13.56,14V89.8h-14v4.58h14v8.94Z"/></svg>