<svg id="Layer_1" data-name="Layer 1" xmlns="http://www.w3.org/2000/svg" viewBox="0 0 170 170"><defs><style>.cls-1{fill:#1f355e;}.cls-2{fill:#40b4e5;}</style></defs><title>HR-Resources</title><path class="cls-1" d="M145.35,69.72,130.46,54.87c1.68-1.1,8.18-4,13.52,1.36,5.55,5.53,2.51,11.76,1.36,13.49m-62.1,62.33-15.2-15.17,59.22-59.14,15.2,15.17ZM66.79,121.68l11.63,11.61-12.6,1Zm50.52,25.57H22.75V56.94H57V22.74h60.32V61.6L62.9,116l-1.74,22.94,23.06-1.78,33.12-33.07v43.15ZM52.7,25.78V52.67H25.79ZM147,53.19c-8.52-8.49-18.45-2.83-21.28,0l-4.11,4.11V18.45H54L18.45,53.92v97.63H121.61V99.8L147,74.44c2.86-2.83,8.62-12.66,0-21.25"/><rect class="cls-2" x="67.71" y="92.74" width="75.09" height="4.3" transform="translate(-36.27 102.12) rotate(-44.96)"/><rect class="cls-2" x="65.74" y="31.34" width="43" height="4.3"/><rect class="cls-2" x="65.74" y="50.65" width="43" height="4.3"/><rect class="cls-2" x="31.2" y="74.26" width="53.8" height="4.3"/><rect class="cls-2" x="31.2" y="91.45" width="34.63" height="4.3"/><rect class="cls-2" x="31.2" y="108.63" width="21.63" height="4.3"/><rect class="cls-2" x="31.34" y="134.39" width="4.3" height="4.3"/><rect class="cls-2" x="39.93" y="134.39" width="4.3" height="4.3"/><rect class="cls-2" x="48.53" y="134.39" width="4.3" height="4.3"/></svg>