<svg id="Layer_1" data-name="Layer 1" xmlns="http://www.w3.org/2000/svg" viewBox="0 0 170 170"><defs><style>.cls-1{fill:#40b4e5;}.cls-2{fill:#1f355e;}</style></defs><title>Membership</title><path class="cls-1" d="M110.76,110.75h-8.59V85h-4.3v62.25H87.12V117h-4.3v30.21H72.08V85h-4.3v25.75H59.19V76.41a15.06,15.06,0,0,1,15-15H95.74a15.06,15.06,0,0,1,15,15v34.35Zm4.3-34.35A19.33,19.33,0,0,0,95.74,57.1H74.26A19.33,19.33,0,0,0,54.95,76.41v38.65H67.84v36.5h34.35v-36.5h12.89V76.41Z"/><path class="cls-1" d="M85,22.75A12.89,12.89,0,1,1,72.11,35.64,12.92,12.92,0,0,1,85,22.75M85,52.8A17.17,17.17,0,1,0,67.84,35.61,17.19,17.19,0,0,0,85,52.8"/><path class="cls-2" d="M59.24,133.31a5.38,5.38,0,0,1-5.37,5.37H48.5V112.75h-4.3v25.94H38.83a5.38,5.38,0,0,1-5.37-5.37V91.45H29.19v15H22.75V85a15.06,15.06,0,0,1,15-15h15v-4.3H37.76A19.37,19.37,0,0,0,18.45,85v25.75H29.19v22.53A9.68,9.68,0,0,0,38.86,143h15a9.68,9.68,0,0,0,9.67-9.67v-14h-4.3v14Z"/><path class="cls-2" d="M46.35,31.34A12.89,12.89,0,1,1,33.46,44.23,12.92,12.92,0,0,1,46.35,31.34m0,30.05A17.16,17.16,0,1,0,29.19,44.2,17.19,17.19,0,0,0,46.35,61.39"/><path class="cls-2" d="M132.24,65.69h-15V70h15a15.06,15.06,0,0,1,15,15v21.46h-6.47v-15h-4.3v41.87a5.38,5.38,0,0,1-5.37,5.37h-5.37V112.75h-4.3v25.94H116.1a5.38,5.38,0,0,1-5.37-5.37v-14h-4.3v14A9.68,9.68,0,0,0,116.1,143h15a9.68,9.68,0,0,0,9.67-9.67V110.78h10.74V85a19.33,19.33,0,0,0-19.31-19.31"/><path class="cls-2" d="M123.65,31.34a12.89,12.89,0,1,1-12.89,12.89,12.92,12.92,0,0,1,12.89-12.89m0,30.05a17.16,17.16,0,1,0-17.16-17.16,17.19,17.19,0,0,0,17.16,17.16"/></svg>