<svg id="Layer_1" data-name="Layer 1" xmlns="http://www.w3.org/2000/svg" viewBox="0 0 170 170"><defs><style>.cls-1{fill:#1f355e;}.cls-2{fill:#40b4e5;}</style></defs><title>Download</title><path class="cls-1" d="M153.39,65.34l-17.06,79.72a2.75,2.75,0,0,1-2.57,1.76H19.28a2.63,2.63,0,0,1-1.73-.66L35.77,63.44a2.76,2.76,0,0,1,2.59-1.76H150.77c2.94,0,2.91,2.82,2.62,3.66M16.51,25.94a2.77,2.77,0,0,1,2.77-2.77H55.22A2.77,2.77,0,0,1,58,25.94v5.13a7.52,7.52,0,0,0,7.49,7.49h71.91a2.77,2.77,0,0,1,2.77,2.77V54.16a7.39,7.39,0,0,0,.55,2.77H38.36A7.51,7.51,0,0,0,31.27,62L16.51,129ZM150.77,57h-3.08a2.77,2.77,0,0,1-2.77-2.77V41.36a7.52,7.52,0,0,0-7.49-7.49H65.51a2.77,2.77,0,0,1-2.77-2.77V25.94a7.52,7.52,0,0,0-7.49-7.49h-36a7.52,7.52,0,0,0-7.49,7.49V144.06a7.52,7.52,0,0,0,7.49,7.49H133.73a7.51,7.51,0,0,0,7.09-5.07l17.09-79.72c.72-2.25.75-9.74-7.15-9.8"/><path class="cls-2" d="M82.66,128.72a24.41,24.41,0,1,1,24.41-24.41,24.44,24.44,0,0,1-24.41,24.41m0-53.55a29.14,29.14,0,1,0,29.14,29.14A29.17,29.17,0,0,0,82.66,75.17"/><polygon class="cls-2" points="82.68 113.47 73.69 105.46 70.55 108.97 82.8 119.87 94.77 108.5 91.54 105.07 82.68 113.47"/><rect class="cls-2" x="80.13" y="92.23" width="5.17" height="21.2"/></svg>