<svg id="Layer_1" data-name="Layer 1" xmlns="http://www.w3.org/2000/svg" viewBox="0 0 170 170"><defs><style>.cls-1{fill:#40b4e5;}.cls-2{fill:#1f355e;}</style></defs><title>Customise</title><rect class="cls-1" x="29.19" y="42.06" width="40.79" height="4.3"/><rect class="cls-1" x="29.19" y="72.6" width="26.52" height="4.3"/><rect class="cls-1" x="29.19" y="87.87" width="26.52" height="4.3"/><rect class="cls-1" x="29.19" y="103.14" width="26.52" height="4.3"/><rect class="cls-1" x="29.19" y="118.41" width="37.21" height="4.3"/><rect class="cls-1" x="29.19" y="133.69" width="66.52" height="4.3"/><path class="cls-2" d="M145.37,145.39a6.58,6.58,0,0,1-7.28,1.23l8.54-8.54a6.42,6.42,0,0,1-1.26,7.31M119.58,128.7l9.12-9.12,15.17,15.17-9.12,9.12Zm.91-11.22,2.13,2.13-3,3-2.25-2.25a34.47,34.47,0,0,0,3.16-2.89m-24.78,6.17a30.05,30.05,0,1,1,30.05-30.05,30.1,30.1,0,0,1-30.05,30.05m8.59,23.61H22.75V22.75H76.41v27.9h27.9v9.6a34.43,34.43,0,1,0,0,66.7ZM80.7,25.79l20.57,20.57H80.7Zm67.7,107.45-19.73-19.73-3,3-2.35-2.35a34.41,34.41,0,0,0-14.68-52.53v-14L79.45,18.45h-61v133.1h90.16v-26a34.42,34.42,0,0,0,5.17-2.62l2.76,2.77-3,3,19.73,19.73a10.86,10.86,0,0,0,15.17,0,10.75,10.75,0,0,0,0-15.2"/><path class="cls-1" d="M73.68,97.26H78A19.33,19.33,0,0,1,97.29,78v-4.3A23.61,23.61,0,0,0,73.68,97.26"/></svg>