<svg id="Layer_1" data-name="Layer 1" xmlns="http://www.w3.org/2000/svg" viewBox="0 0 170 170"><defs><style>.cls-1{fill:#40b4e5;}.cls-2{fill:#1f355e;}</style></defs><title>Benefits</title><path class="cls-1" d="M85,30a1,1,0,0,0-.94.58l-9.4,19A7.54,7.54,0,0,1,69,53.74L48,56.8a1,1,0,0,0-.58,1.79L62.6,73.4a7.54,7.54,0,0,1,2.17,6.67L61.18,101a1,1,0,0,0,1.52,1.1l18.8-9.88a7.53,7.53,0,0,1,7,0l18.8,9.88a1,1,0,0,0,1.52-1.1l-3.59-20.93a7.54,7.54,0,0,1,2.17-6.67l15.21-14.82A1,1,0,0,0,122,56.8l-21-3.05a7.54,7.54,0,0,1-5.68-4.12l-9.4-19A1,1,0,0,0,85,30M62.2,108.73a7.55,7.55,0,0,1-7.42-8.82L58.37,79a1,1,0,0,0-.3-.93L42.86,63.23A7.54,7.54,0,0,1,47,50.37l21-3.05a1,1,0,0,0,.79-.57l9.4-19a7.54,7.54,0,0,1,13.52,0l9.4,19a1,1,0,0,0,.79.57l21,3.05a7.54,7.54,0,0,1,4.18,12.86L111.93,78.05a1.05,1.05,0,0,0-.3.93l3.59,20.93a7.54,7.54,0,0,1-10.94,7.95L85.49,98a1,1,0,0,0-1,0l-18.8,9.88a7.54,7.54,0,0,1-3.51.87"/><path class="cls-2" d="M65.87,121.59,55.39,140.31a2.39,2.39,0,0,1-3.45.8l-5.08-3.53a2.39,2.39,0,0,1-.46-3.51L60.27,117.7a2.39,2.39,0,0,1,3.19-.42l1.69,1.17a2.39,2.39,0,0,1,.72,3.13"/><path class="cls-2" d="M104.13,121.59l10.48,18.72a2.39,2.39,0,0,0,3.45.8l5.08-3.53a2.39,2.39,0,0,0,.46-3.51L109.73,117.7a2.39,2.39,0,0,0-3.19-.42l-1.69,1.17a2.39,2.39,0,0,0-.72,3.13"/><path class="cls-2" d="M89,120l2,23.94a2.39,2.39,0,0,1-2.41,2.59l-7.31-.09A2.39,2.39,0,0,1,79,143.77l2.6-23.89a2.39,2.39,0,0,1,2.4-2.13l2.68,0A2.39,2.39,0,0,1,89,120"/></svg>