<svg id="Layer_1" data-name="Layer 1" xmlns="http://www.w3.org/2000/svg" viewBox="0 0 75 75"><defs><style>.cls-1{fill:#29aae1;}</style></defs><title>Twitter</title><path class="cls-1" d="M62.5,22a20.57,20.57,0,0,1-5.89,1.62,10.28,10.28,0,0,0,4.51-5.68,20.49,20.49,0,0,1-6.51,2.49,10.27,10.27,0,0,0-17.48,9.36A29.12,29.12,0,0,1,16,19.06a10.27,10.27,0,0,0,3.18,13.7,10.2,10.2,0,0,1-4.65-1.28s0,.09,0,.13a10.27,10.27,0,0,0,8.23,10.06,10.25,10.25,0,0,1-4.63.18A10.27,10.27,0,0,0,27.69,49a20.58,20.58,0,0,1-12.74,4.39,21,21,0,0,1-2.45-.14,29,29,0,0,0,15.72,4.61c18.87,0,29.19-15.63,29.19-29.19,0-.45,0-.89,0-1.33A20.83,20.83,0,0,0,62.5,22"/></svg>