<svg id="Layer_1" data-name="Layer 1" xmlns="http://www.w3.org/2000/svg" viewBox="0 0 170 170"><defs><style>.cls-1{fill:#1f355e;}.cls-2{fill:#40b4e5;}</style></defs><title>Subscribe</title><path class="cls-1" d="M72.2,111.09H65.81V83.42H61.55V142a5.33,5.33,0,0,1-5.33,5.33H50.9V121.57H46.64v25.72h-5.3A5.33,5.33,0,0,1,36,142V83.42H31.75v27.67H25.36V77A14.93,14.93,0,0,1,40.27,62.12h17A14.93,14.93,0,0,1,72.2,77ZM57.29,57.88h-17A19.17,19.17,0,0,0,21.12,77v38.32H31.77V142a9.6,9.6,0,0,0,9.59,9.59H56.28A9.6,9.6,0,0,0,65.86,142V115.36H76.52V77A19.27,19.27,0,0,0,57.29,57.88"/><path class="cls-1" d="M48.77,22.71A12.78,12.78,0,1,1,36,35.49,12.81,12.81,0,0,1,48.77,22.71m0,29.8a17,17,0,1,0-17-17,17,17,0,0,0,17,17"/><path class="cls-1" d="M142.85,90.27,128.12,75.53c1.72-1.14,8.13-3.9,13.41,1.35a10.67,10.67,0,0,1,1.33,13.38m-40.48,40.79-15-15,37.62-37.62,15,15Zm-17.25,2.21,1-12.47,11.51,11.51Zm59.4-59.4c-5.59-5.59-15.64-5.43-21.07,0L82.23,115.05l-1.77,22.84,22.84-1.77,41.21-41.21a14.87,14.87,0,0,0,0-21"/><rect class="cls-2" x="91.28" y="102.59" width="44.72" height="4.26" transform="translate(-40.76 111.03) rotate(-45)"/></svg>