<svg id="Layer_1" data-name="Layer 1" xmlns="http://www.w3.org/2000/svg" viewBox="0 0 110 50"><defs><style>.cls-1{fill:#fff;}.cls-2{fill:#53bbe7;}</style></defs><title>2Star</title><path class="cls-1" d="M21.07,19.17a.36.36,0,0,0-.34.2l-3.37,6.68a2.7,2.7,0,0,1-2,1.44L7.8,28.57a.36.36,0,0,0-.3.25.35.35,0,0,0,.1.38L13,34.4a2.61,2.61,0,0,1,.78,2.34l-1.29,7.34a.35.35,0,0,0,.15.36.37.37,0,0,0,.39,0L19.82,41a2.75,2.75,0,0,1,2.51,0l6.74,3.46a.37.37,0,0,0,.39,0,.35.35,0,0,0,.15-.36l-1.29-7.34a2.61,2.61,0,0,1,.78-2.34l5.45-5.2a.34.34,0,0,0,.09-.38.36.36,0,0,0-.3-.25L26.81,27.5a2.7,2.7,0,0,1-2-1.44l-3.37-6.68a.36.36,0,0,0-.34-.2M12.9,46.78a2.73,2.73,0,0,1-1.59-.51,2.6,2.6,0,0,1-1.07-2.58l1.29-7.34a.36.36,0,0,0-.11-.33L6,30.83a2.59,2.59,0,0,1-.68-2.71,2.67,2.67,0,0,1,2.18-1.8L15,25.25a.37.37,0,0,0,.28-.2l3.37-6.68a2.73,2.73,0,0,1,4.85,0L26.87,25a.37.37,0,0,0,.28.2l7.53,1.07a2.67,2.67,0,0,1,2.18,1.8,2.59,2.59,0,0,1-.68,2.71L30.73,36a.36.36,0,0,0-.11.32l1.29,7.34a2.6,2.6,0,0,1-1.07,2.58,2.74,2.74,0,0,1-2.85.2L21.25,43a.38.38,0,0,0-.35,0l-6.74,3.46a2.74,2.74,0,0,1-1.26.31"/><path class="cls-2" d="M88.93,19.17a.36.36,0,0,0-.34.2l-3.37,6.68a2.7,2.7,0,0,1-2,1.44l-7.54,1.07a.36.36,0,0,0-.3.25.35.35,0,0,0,.1.38l5.45,5.2a2.61,2.61,0,0,1,.78,2.34l-1.29,7.34a.35.35,0,0,0,.15.36.37.37,0,0,0,.39,0L87.67,41a2.75,2.75,0,0,1,2.51,0l6.74,3.46a.37.37,0,0,0,.39,0,.35.35,0,0,0,.15-.36l-1.29-7.34A2.61,2.61,0,0,1,97,34.4l5.45-5.2a.34.34,0,0,0,.09-.38.36.36,0,0,0-.3-.25L94.67,27.5a2.7,2.7,0,0,1-2-1.44l-3.37-6.68a.36.36,0,0,0-.34-.2M80.75,46.78a2.73,2.73,0,0,1-1.59-.51,2.6,2.6,0,0,1-1.07-2.58l1.29-7.34a.36.36,0,0,0-.11-.33l-5.45-5.2a2.59,2.59,0,0,1-.68-2.71,2.67,2.67,0,0,1,2.18-1.8l7.53-1.07a.37.37,0,0,0,.28-.2l3.37-6.68a2.73,2.73,0,0,1,4.85,0L94.72,25a.37.37,0,0,0,.28.2l7.53,1.07a2.67,2.67,0,0,1,2.18,1.8,2.59,2.59,0,0,1-.68,2.71L98.58,36a.36.36,0,0,0-.11.32l1.29,7.34a2.6,2.6,0,0,1-1.07,2.58,2.74,2.74,0,0,1-2.85.2L89.1,43a.38.38,0,0,0-.35,0L82,46.47a2.74,2.74,0,0,1-1.26.31"/><path class="cls-1" d="M55,5.49a.36.36,0,0,0-.34.21l-3.37,6.68a2.7,2.7,0,0,1-2,1.44l-7.54,1.07a.36.36,0,0,0-.3.25.35.35,0,0,0,.1.38L47,20.72a2.61,2.61,0,0,1,.78,2.34l-1.29,7.34a.35.35,0,0,0,.15.36.37.37,0,0,0,.39,0l6.74-3.46a2.75,2.75,0,0,1,2.51,0L63,30.78a.37.37,0,0,0,.39,0,.35.35,0,0,0,.15-.36l-1.29-7.34A2.61,2.61,0,0,1,63,20.72l5.45-5.2a.34.34,0,0,0,.09-.38.36.36,0,0,0-.3-.25l-7.54-1.07a2.7,2.7,0,0,1-2-1.44L55.34,5.7A.36.36,0,0,0,55,5.49M46.83,33.1a2.73,2.73,0,0,1-1.59-.51A2.6,2.6,0,0,1,44.16,30l1.29-7.34a.36.36,0,0,0-.11-.33l-5.45-5.2a2.59,2.59,0,0,1-.68-2.71,2.67,2.67,0,0,1,2.18-1.8l7.53-1.07a.37.37,0,0,0,.28-.2l3.37-6.68a2.73,2.73,0,0,1,4.85,0l3.37,6.68a.37.37,0,0,0,.28.2l7.53,1.07a2.67,2.67,0,0,1,2.18,1.8,2.59,2.59,0,0,1-.68,2.71l-5.45,5.2a.36.36,0,0,0-.11.32L65.84,30a2.6,2.6,0,0,1-1.07,2.59,2.74,2.74,0,0,1-2.85.2l-6.74-3.46a.38.38,0,0,0-.35,0L48.09,32.8a2.74,2.74,0,0,1-1.26.31"/></svg>