<svg id="Layer_1" data-name="Layer 1" xmlns="http://www.w3.org/2000/svg" viewBox="0 0 170 170"><defs><style>.cls-1{fill:#40b4e5;}.cls-2{fill:#1f355e;}</style></defs><title>HR-Assistance</title><path class="cls-1" d="M139.73,95.74A10.74,10.74,0,1,1,150.47,85a10.76,10.76,0,0,1-10.74,10.74m0-25.78a15,15,0,1,0,15,15,15.06,15.06,0,0,0-15-15"/><path class="cls-1" d="M139.73,138.66a10.74,10.74,0,1,1,10.74-10.74,10.76,10.76,0,0,1-10.74,10.74m0-25.75a15,15,0,1,0,15,15,15.06,15.06,0,0,0-15-15"/><path class="cls-1" d="M139.73,31.34A10.74,10.74,0,1,1,129,42.08a10.76,10.76,0,0,1,10.74-10.74m0,25.75a15,15,0,1,0-15-15,15.06,15.06,0,0,0,15,15"/><polygon class="cls-1" points="96.81 82.85 79.62 82.85 79.62 87.15 96.81 87.15 96.81 130.09 122.56 130.09 122.56 125.79 101.11 125.79 101.11 87.15 122.56 87.15 122.56 82.85 101.11 82.85 101.11 44.2 122.56 44.2 122.56 39.91 96.81 39.91 96.81 82.85"/><path class="cls-2" d="M71,110.75H62.45V85h-4.3v62.25H47.41V117h-4.3v30.21H32.37V85h-4.3v25.75H19.48V76.41a15.06,15.06,0,0,1,15-15H56a15.06,15.06,0,0,1,15,15v34.35Zm4.3-34.35A19.33,19.33,0,0,0,56,57.1H34.54A19.33,19.33,0,0,0,15.23,76.41v38.65H28.12v36.5H62.47v-36.5H75.36V76.41Z"/><path class="cls-2" d="M45.29,22.75A12.89,12.89,0,1,1,32.4,35.64,12.92,12.92,0,0,1,45.29,22.75m0,30.05A17.17,17.17,0,1,0,28.13,35.61,17.19,17.19,0,0,0,45.29,52.8"/></svg>